<svg width="878" height="224" viewBox="0 0 878 224" fill="none" xmlns="http://www.w3.org/2000/svg">
<g clip-path="url(#clip0_1770_30946)">
<path d="M330.961 181.228C309.346 181.228 297.595 171.155 297.595 147.443V96.2406H282.276V72.1085H297.595V50.0752L325.924 47.1373V72.1085H349.007V96.2406H325.924V145.974C325.924 152.899 329.282 156.046 334.738 156.046H346.489V181.228H330.961ZM358.476 181.228V72.1085H385.966V92.8836C389.743 77.1449 400.865 68.5415 419.751 69.5907V96.2406H415.763C399.396 96.2406 386.805 107.153 386.805 125.409V181.228H358.476ZM476.099 183.956C442.314 183.956 419.651 158.355 419.651 126.878C419.651 95.4015 443.363 69.3806 476.099 69.3806C508.834 69.3806 531.498 95.4015 531.498 126.878C531.498 130.026 531.288 133.383 530.658 136.95H449.029C452.177 149.751 461.829 158.775 476.099 158.775C488.27 158.775 497.713 152.479 502.749 144.085L524.782 160.663C515.969 174.303 497.713 183.956 476.099 183.956ZM449.029 115.756H502.959C499.811 103.585 489.529 93.7227 475.679 93.7227C462.249 93.7227 452.177 102.746 449.029 115.756ZM543.934 181.228V72.1085H571.844V88.0567C577.509 75.8863 588.421 69.5907 605.209 69.5907C628.711 69.5907 646.758 87.0076 646.758 114.497V181.228H618.431V121.422C618.431 102.536 608.987 94.3523 594.926 94.3523C582.965 94.3523 572.263 102.536 572.263 121.422V181.228H543.934ZM714.63 183.956C683.361 183.956 658.388 158.355 658.388 126.668C658.388 94.982 682.731 69.5907 716.095 69.3806C736.031 69.1711 752.19 76.9354 761.422 89.7355L739.597 107.573C734.56 100.018 726.169 95.1914 716.519 95.1914C698.472 95.1914 686.721 109.671 686.721 126.668C686.721 143.666 699.102 158.145 717.149 158.145C728.058 158.145 735.19 152.689 740.856 145.134L761.422 162.971C751.142 176.192 736.031 183.956 714.63 183.956ZM772.634 181.228V28.0415H800.961V87.2176C806.833 75.4661 817.537 69.5907 833.907 69.5907C857.409 69.5907 875.456 87.0076 875.456 114.497V181.228H847.123V121.422C847.123 102.536 837.685 94.3523 823.621 94.3523C811.665 94.3523 800.961 102.536 800.961 121.422V181.228H772.634Z" fill="white"/>
<g filter="url(#filter0_ii_1770_30946)">
<path fill-rule="evenodd" clip-rule="evenodd" d="M46.8586 11.0095L44.7635 11.0114C44.3401 11.01 43.9171 11.0063 43.4943 11.0026C40.6436 10.9776 37.8078 10.9527 35.0148 11.6335L34.3378 11.8167C25.9554 13.6687 18.4856 17.9244 12.4362 24.0044C3.08576 33.7048 -0.125524 45.4563 0.00373091 58.6159C0.0160567 59.8194 0.0223402 61.0226 0.0246503 62.2261C0.0286122 64.5061 0.0400546 66.786 0.0581641 69.066C0.0789122 71.6771 0.0914198 74.2876 0.100623 76.8987C0.119916 82.5199 0.151449 88.1411 0.193733 93.7623L0.990304 93.7726L2.04914 93.781C3.78217 93.798 5.38083 93.6109 7.07713 93.2677L8.10081 93.0437C9.22499 92.7991 10.3467 92.5472 11.4667 92.2839L12.6159 92.0102C15.0823 91.443 17.4448 90.8224 19.78 89.838L20.6802 89.4494C26.5462 87.0241 32.1214 84.2816 37.6032 81.0796L38.6507 80.4639C44.3169 77.1463 49.8775 73.6646 55.3745 70.074C58.1796 68.2414 60.9976 66.4403 63.8654 64.7077C64.9812 64.0338 66.0945 63.3582 67.1964 62.6626C79.5254 54.8086 93.6096 47.1556 108.584 46.9328L109.769 46.9267C116.093 46.8918 121.751 48.3665 127.454 51.0235L128.571 51.5541C128.672 51.6018 128.772 51.6492 128.871 51.6966C130.803 52.6115 132.651 53.4871 134.254 54.946C132.368 55.5105 130.496 56.1024 128.644 56.7689C123.905 58.6092 119.896 61.614 117.733 66.3083C116.885 69.0908 116.752 72.7717 118.026 75.4421L118.44 76.151C122.992 84.1951 131.194 88.7967 139.866 91.2819L141.083 91.6058C142.054 91.8704 143.026 92.1277 144.003 92.3698C157.519 95.4883 173.39 95.0778 185.391 87.6773L186.01 87.2929C194.639 81.9714 200.969 73.773 204.37 64.2609L204.698 63.3025C205.333 61.4784 205.758 60.2563 206.041 59.0023C206.615 56.4572 206.604 53.7801 206.572 45.6698C206.567 44.4855 206.564 43.3011 206.564 42.1168C206.562 39.8757 206.557 37.6347 206.55 35.3936C206.542 32.8253 206.536 30.257 206.533 27.6886C206.526 22.1584 206.513 16.6281 206.496 11.0979C190.953 11.0859 175.411 11.0746 159.868 11.068L158.437 11.0674L143.01 11.0614L135.436 11.0586L134.675 11.0584C126.524 11.0553 118.372 11.0502 110.221 11.0436C101.83 11.0368 93.4377 11.032 85.0461 11.0305C79.8736 11.0296 74.7016 11.0277 69.529 11.0219C65.9517 11.0178 62.3749 11.0156 58.7973 11.0159L58.1219 11.0161C56.2813 11.0167 54.4407 11.0172 52.6 11.0144C50.6862 11.0108 48.7724 11.008 46.8586 11.0095ZM91.8709 83.8706C91.7801 83.7277 91.6759 83.5939 91.4798 83.3426C90.6183 82.9631 90.1897 82.9407 89.2834 83.204L88.4655 83.583L87.5428 84.0098L86.5603 84.4881C76.7939 89.2266 68.208 97.0775 64.2196 107.377L63.8055 108.501C61.2059 115.152 60.767 121.905 60.8015 128.987C60.8057 129.802 60.8075 130.618 60.8081 131.434C60.8063 133.671 60.8087 135.909 60.816 138.146C60.8239 140.518 60.8275 142.889 60.8287 145.26C60.8305 149.489 60.8366 153.717 60.8469 157.946C60.8566 162.057 60.865 166.169 60.8699 170.282L60.8711 171.054L60.8747 174.896C60.8862 185.711 60.9056 196.525 60.9298 207.34C66.301 207.356 71.6721 207.368 77.0427 207.376C79.6574 207.379 82.2722 207.384 84.8869 207.391C87.1802 207.399 89.4741 207.405 91.7674 207.407C92.7433 207.408 93.7192 207.408 94.6951 207.41C104.577 207.45 114.525 207.061 123.176 201.647L123.827 201.23C124.02 201.106 124.214 200.983 124.408 200.86C126.932 199.257 129.508 197.62 131.532 195.406L132.093 194.76C132.91 193.878 133.723 192.992 134.519 192.092L135.328 191.166C143.776 181.745 145.641 169.784 145.544 157.568C145.533 156.281 145.529 154.995 145.527 153.708C145.524 151.272 145.515 148.837 145.5 146.4C145.484 143.61 145.473 140.819 145.466 138.028C145.45 132.02 145.426 126.011 145.392 120.003L144.661 119.851L143.693 119.653C142.775 119.464 141.874 119.293 140.943 119.187C127.422 118.045 113.168 110.265 103.923 100.527L102.981 99.516C99.1248 95.4949 95.6795 91.1512 93.075 86.2183L92.647 85.3647L92.2426 84.5783C92.0598 84.2066 91.9738 84.0328 91.8709 83.8706Z" fill="url(#paint0_linear_1770_30946)"/>
<path fill-rule="evenodd" clip-rule="evenodd" d="M46.8586 11.0095L44.7635 11.0114C44.3401 11.01 43.9171 11.0063 43.4943 11.0026C40.6436 10.9776 37.8078 10.9527 35.0148 11.6335L34.3378 11.8167C25.9554 13.6687 18.4856 17.9244 12.4362 24.0044C3.08576 33.7048 -0.125524 45.4563 0.00373091 58.6159C0.0160567 59.8194 0.0223402 61.0226 0.0246503 62.2261C0.0286122 64.5061 0.0400546 66.786 0.0581641 69.066C0.0789122 71.6771 0.0914198 74.2876 0.100623 76.8987C0.119916 82.5199 0.151449 88.1411 0.193733 93.7623L0.990304 93.7726L2.04914 93.781C3.78217 93.798 5.38083 93.6109 7.07713 93.2677L8.10081 93.0437C9.22499 92.7991 10.3467 92.5472 11.4667 92.2839L12.6159 92.0102C15.0823 91.443 17.4448 90.8224 19.78 89.838L20.6802 89.4494C26.5462 87.0241 32.1214 84.2816 37.6032 81.0796L38.6507 80.4639C44.3169 77.1463 49.8775 73.6646 55.3745 70.074C58.1796 68.2414 60.9976 66.4403 63.8654 64.7077C64.9812 64.0338 66.0945 63.3582 67.1964 62.6626C79.5254 54.8086 93.6096 47.1556 108.584 46.9328L109.769 46.9267C116.093 46.8918 121.751 48.3665 127.454 51.0235L128.571 51.5541C128.672 51.6018 128.772 51.6492 128.871 51.6966C130.803 52.6115 132.651 53.4871 134.254 54.946C132.368 55.5105 130.496 56.1024 128.644 56.7689C123.905 58.6092 119.896 61.614 117.733 66.3083C116.885 69.0908 116.752 72.7717 118.026 75.4421L118.44 76.151C122.992 84.1951 131.194 88.7967 139.866 91.2819L141.083 91.6058C142.054 91.8704 143.026 92.1277 144.003 92.3698C157.519 95.4883 173.39 95.0778 185.391 87.6773L186.01 87.2929C194.639 81.9714 200.969 73.773 204.37 64.2609L204.698 63.3025C205.333 61.4784 205.758 60.2563 206.041 59.0023C206.615 56.4572 206.604 53.7801 206.572 45.6698C206.567 44.4855 206.564 43.3011 206.564 42.1168C206.562 39.8757 206.557 37.6347 206.55 35.3936C206.542 32.8253 206.536 30.257 206.533 27.6886C206.526 22.1584 206.513 16.6281 206.496 11.0979C190.953 11.0859 175.411 11.0746 159.868 11.068L158.437 11.0674L143.01 11.0614L135.436 11.0586L134.675 11.0584C126.524 11.0553 118.372 11.0502 110.221 11.0436C101.83 11.0368 93.4377 11.032 85.0461 11.0305C79.8736 11.0296 74.7016 11.0277 69.529 11.0219C65.9517 11.0178 62.3749 11.0156 58.7973 11.0159L58.1219 11.0161C56.2813 11.0167 54.4407 11.0172 52.6 11.0144C50.6862 11.0108 48.7724 11.008 46.8586 11.0095ZM91.8709 83.8706C91.7801 83.7277 91.6759 83.5939 91.4798 83.3426C90.6183 82.9631 90.1897 82.9407 89.2834 83.204L88.4655 83.583L87.5428 84.0098L86.5603 84.4881C76.7939 89.2266 68.208 97.0775 64.2196 107.377L63.8055 108.501C61.2059 115.152 60.767 121.905 60.8015 128.987C60.8057 129.802 60.8075 130.618 60.8081 131.434C60.8063 133.671 60.8087 135.909 60.816 138.146C60.8239 140.518 60.8275 142.889 60.8287 145.26C60.8305 149.489 60.8366 153.717 60.8469 157.946C60.8566 162.057 60.865 166.169 60.8699 170.282L60.8711 171.054L60.8747 174.896C60.8862 185.711 60.9056 196.525 60.9298 207.34C66.301 207.356 71.6721 207.368 77.0427 207.376C79.6574 207.379 82.2722 207.384 84.8869 207.391C87.1802 207.399 89.4741 207.405 91.7674 207.407C92.7433 207.408 93.7192 207.408 94.6951 207.41C104.577 207.45 114.525 207.061 123.176 201.647L123.827 201.23C124.02 201.106 124.214 200.983 124.408 200.86C126.932 199.257 129.508 197.62 131.532 195.406L132.093 194.76C132.91 193.878 133.723 192.992 134.519 192.092L135.328 191.166C143.776 181.745 145.641 169.784 145.544 157.568C145.533 156.281 145.529 154.995 145.527 153.708C145.524 151.272 145.515 148.837 145.5 146.4C145.484 143.61 145.473 140.819 145.466 138.028C145.45 132.02 145.426 126.011 145.392 120.003L144.661 119.851L143.693 119.653C142.775 119.464 141.874 119.293 140.943 119.187C127.422 118.045 113.168 110.265 103.923 100.527L102.981 99.516C99.1248 95.4949 95.6795 91.1512 93.075 86.2183L92.647 85.3647L92.2426 84.5783C92.0598 84.2066 91.9738 84.0328 91.8709 83.8706Z" fill="url(#paint1_linear_1770_30946)" fill-opacity="0.16"/>
</g>
</g>
<defs>
<filter id="filter0_ii_1770_30946" x="0" y="8.67849" width="206.584" height="201.049" filterUnits="userSpaceOnUse" color-interpolation-filters="sRGB">
<feFlood flood-opacity="0" result="BackgroundImageFix"/>
<feBlend mode="normal" in="SourceGraphic" in2="BackgroundImageFix" result="shape"/>
<feColorMatrix in="SourceAlpha" type="matrix" values="0 0 0 0 0 0 0 0 0 0 0 0 0 0 0 0 0 0 127 0" result="hardAlpha"/>
<feOffset dy="2.31467"/>
<feGaussianBlur stdDeviation="1.15734"/>
<feComposite in2="hardAlpha" operator="arithmetic" k2="-1" k3="1"/>
<feColorMatrix type="matrix" values="0 0 0 0 1 0 0 0 0 1 0 0 0 0 1 0 0 0 0.25 0"/>
<feBlend mode="normal" in2="shape" result="effect1_innerShadow_1770_30946"/>
<feColorMatrix in="SourceAlpha" type="matrix" values="0 0 0 0 0 0 0 0 0 0 0 0 0 0 0 0 0 0 127 0" result="hardAlpha"/>
<feOffset dy="-2.31467"/>
<feGaussianBlur stdDeviation="1.15734"/>
<feComposite in2="hardAlpha" operator="arithmetic" k2="-1" k3="1"/>
<feColorMatrix type="matrix" values="0 0 0 0 1 0 0 0 0 1 0 0 0 0 1 0 0 0 0.25 0"/>
<feBlend mode="normal" in2="effect1_innerShadow_1770_30946" result="effect2_innerShadow_1770_30946"/>
</filter>
<linearGradient id="paint0_linear_1770_30946" x1="266.378" y1="317.837" x2="-36.3243" y2="-75.6762" gradientUnits="userSpaceOnUse">
<stop stop-color="#000BFF"/>
<stop offset="1" stop-color="#0199BB"/>
</linearGradient>
<linearGradient id="paint1_linear_1770_30946" x1="103.292" y1="10.9932" x2="103.292" y2="207.412" gradientUnits="userSpaceOnUse">
<stop stop-color="#050C3B" stop-opacity="0"/>
<stop offset="1" stop-color="#050C3B"/>
</linearGradient>
<clipPath id="clip0_1770_30946">
<rect width="877.838" height="224" fill="white"/>
</clipPath>
</defs>
</svg>
